<svg width="1920" height="874" viewBox="0 0 1920 874" fill="none" xmlns="http://www.w3.org/2000/svg">
<path d="M249.863 10.1722C118.489 0.166598 8.02761 76.7094 -30.7813 116.231L-44 597H1920V180.267C1878.99 214.286 1775.81 276.321 1691.21 252.307C1585.46 222.291 1438.02 82.2125 1351.59 42.1901C1265.16 2.16778 1079.59 -11.3398 973.843 10.1722C868.093 31.6841 714.552 116.231 614.903 116.231C515.254 116.231 414.08 22.6792 249.863 10.1722Z" fill="#D57B54"/>
<path d="M1438.5 256.689C1601.7 178.689 1828.17 224.189 1921 256.689V596.689H0V80.1889C276 73.6889 297.5 237.189 389 218.189C480.5 199.189 652.5 279.689 807.5 339.189C962.5 398.689 1234.5 354.189 1438.5 256.689Z" fill="#FD9B40"/>
<path d="M245.5 419.358C117.9 374.958 21 406.691 -8 428.858V874.5L1919.5 887V430.358C1783.67 450.191 1483.5 481.758 1369.5 449.358C1227 408.858 853 449.358 764 472.858C675 496.358 405 474.858 245.5 419.358Z" fill="#FFB762"/>
</svg>
